<?xml version="1.0" encoding="utf-8"?>
<!-- Generator: Adobe Illustrator 16.0.0, SVG Export Plug-In . SVG Version: 6.00 Build 0)  -->
<!DOCTYPE svg PUBLIC "-//W3C//DTD SVG 1.1//EN" "http://www.w3.org/Graphics/SVG/1.1/DTD/svg11.dtd">
<svg version="1.1" id="Layer_1" xmlns="http://www.w3.org/2000/svg" xmlns:xlink="http://www.w3.org/1999/xlink" x="0px" y="0px"
	 width="56.16px" height="56.16px" viewBox="0 0 56.16 56.16" enable-background="new 0 0 56.16 56.16" xml:space="preserve">
<rect x="5.85" y="5.85" fill="none" width="44.46" height="44.46"/>
<g>
	<path fill="#45A4F4" d="M28.08,3.826c13.394,0,24.253,10.859,24.253,24.256c0,13.396-10.859,24.251-24.253,24.251
		c-13.396,0-24.255-10.855-24.255-24.251C3.826,14.686,14.686,3.826,28.08,3.826 M28.08,0.707
		c-15.094,0-27.374,12.279-27.374,27.374c0,15.092,12.28,27.372,27.375,27.372c15.094,0,27.373-12.278,27.373-27.372
		C55.453,12.986,43.175,0.707,28.08,0.707L28.08,0.707z"/>
</g>
<path fill="#45A4F4" d="M28.742,48.35c-8.004-0.467-14.387-6.863-14.838-14.863c0-7.839,11.486-21.19,14.838-25.676
	c3.35,4.486,13.514,17.81,13.514,25.645C42.256,41.293,35.982,48.35,28.742,48.35z"/>
</svg>
