<?xml version="1.0" encoding="utf-8"?>
<!-- Generator: Adobe Illustrator 16.0.0, SVG Export Plug-In . SVG Version: 6.00 Build 0)  -->
<!DOCTYPE svg PUBLIC "-//W3C//DTD SVG 1.1//EN" "http://www.w3.org/Graphics/SVG/1.1/DTD/svg11.dtd">
<svg version="1.1" id="Layer_1" xmlns="http://www.w3.org/2000/svg" xmlns:xlink="http://www.w3.org/1999/xlink" x="0px" y="0px"
	 width="56.16px" height="56.16px" viewBox="0 0 56.16 56.16" enable-background="new 0 0 56.16 56.16" xml:space="preserve">
<rect x="5.85" y="5.85" fill="none" width="44.46" height="44.46"/>
<g>
	<path fill="#45A4F4" d="M28.08,3.826c13.394,0,24.253,10.859,24.253,24.256c0,13.396-10.859,24.251-24.253,24.251
		c-13.396,0-24.255-10.855-24.255-24.251C3.826,14.686,14.686,3.826,28.08,3.826 M28.08,0.707
		c-15.094,0-27.374,12.279-27.374,27.374c0,15.092,12.28,27.372,27.375,27.372c15.094,0,27.373-12.278,27.373-27.372
		C55.453,12.986,43.175,0.707,28.08,0.707L28.08,0.707z"/>
</g>
<path display="none" fill="#67C7FA" d="M19.382,38.99c-8.004-0.467-14.387-6.863-14.838-14.863c0-7.84,11.486-21.191,14.838-25.677
	c3.35,4.486,13.515,17.81,13.515,25.646C32.896,31.934,26.622,38.99,19.382,38.99z"/>
<path display="none" fill="#67C7FA" d="M15.567,3.362c-0.306-0.306-0.802-0.306-1.107,0L0.598,17.223
	c-0.302,0.314-0.293,0.812,0.019,1.114c0.144,0.137,0.334,0.219,0.537,0.221h4.409v14.965c0,0.435,0.351,0.785,0.785,0.785l0,0
	h11.025c0.433,0.002,0.787-0.346,0.789-0.777l0,0l0,0V16.427c0-0.209,0.084-0.41,0.232-0.558l4.493-5.187L15.567,3.362z
	 M15.013,28.008h-3.15v-3.15h3.15V28.008z M15.013,21.708h-3.15v-3.15h3.15V21.708z M36.275,9.109H34.7
	c-0.437,0-0.787,0.353-0.787,0.787v5.513l-4.172-5.746c-0.308-0.306-0.8-0.306-1.107,0l-7.143,8.681
	c-0.117,0.142-0.179,0.313-0.179,0.492v14.68c-0.006,0.436,0.343,0.787,0.775,0.793l0,0h4.726c0.44,0,0.8-0.354,0.8-0.793l0,0l0,0
	v-5.507h3.149v5.502c0,0.441,0.357,0.798,0.799,0.798l0,0h4.726c0.431-0.006,0.776-0.354,0.776-0.785V9.896
	C37.062,9.461,36.712,9.109,36.275,9.109z M27.614,24.858h-3.15v-3.149h3.15V24.858z M33.913,24.858h-3.149v-3.149h3.149V24.858z"/>
<path fill="#45A4F4" d="M36.445,38.241c-0.74-1.475-0.74-5.655,0-6.887c0.981-1.477,8.363,3.443,8.363,3.443
	c2.213,0.982,2.213-15.006,0-14.022c0,0-7.628,5.167-8.363,3.443c-0.74-1.722-0.74-5.165,0-6.887
	c0.736-1.476,10.084-1.722,10.084-1.722c0-1.722-7.135-3.443-10.084-3.443c-2.953,0-6.15,0.247-10.086,1.968
	c-3.938,1.475-7.136,3.935-10.087,6.888C13.32,23.975,9.63,29.879,9.63,31.601c0,1.721,3.69,6.887,9.103,9.101
	c5.412,2.215,8.118,2.706,11.07,3.2c2.705,0.244,6.396,0,9.593-0.74c2.461-0.489,7.135-1.721,7.135-2.704
	C46.529,39.965,37.182,39.719,36.445,38.241z M20.7,32.586c-1.968,0-3.69-1.726-3.69-3.69c0-1.969,1.723-3.69,3.69-3.69
	s3.689,1.722,3.689,3.69C24.39,30.86,22.668,32.586,20.7,32.586z"/>
</svg>
