<?xml version="1.0" encoding="utf-8"?>
<!-- Generator: Adobe Illustrator 16.0.0, SVG Export Plug-In . SVG Version: 6.00 Build 0)  -->
<!DOCTYPE svg PUBLIC "-//W3C//DTD SVG 1.1//EN" "http://www.w3.org/Graphics/SVG/1.1/DTD/svg11.dtd">
<svg version="1.1" id="Layer_1" xmlns="http://www.w3.org/2000/svg" xmlns:xlink="http://www.w3.org/1999/xlink" x="0px" y="0px"
	 width="56.16px" height="56.16px" viewBox="-9.36 -9.36 56.16 56.16" enable-background="new -9.36 -9.36 56.16 56.16"
	 xml:space="preserve">
<rect x="-3.51" y="-3.51" fill="none" width="44.46" height="44.46"/>
<g id="Blue">
	<path fill="#67C7FA" d="M18.72-5.534c13.393,0,24.252,10.859,24.252,24.255c0,13.396-10.859,24.252-24.252,24.252
		c-13.396,0-24.255-10.856-24.255-24.252C-5.534,5.325,5.325-5.534,18.72-5.534 M18.72-8.654C3.626-8.654-8.654,3.626-8.654,18.72
		c0,15.093,12.28,27.373,27.375,27.373c15.093,0,27.373-12.279,27.373-27.373C46.093,3.626,33.814-8.654,18.72-8.654L18.72-8.654z"
		/>
</g>
<g id="Green">
	<path fill="#52CE8D" d="M18.72-5.534c13.393,0,24.252,10.859,24.252,24.255c0,13.396-10.859,24.252-24.252,24.252
		c-13.396,0-24.255-10.856-24.255-24.252C-5.534,5.325,5.325-5.534,18.72-5.534 M18.72-8.654C3.626-8.654-8.654,3.626-8.654,18.72
		c0,15.093,12.28,27.373,27.375,27.373c15.093,0,27.373-12.279,27.373-27.373C46.093,3.626,33.814-8.654,18.72-8.654L18.72-8.654z"
		/>
</g>
<path display="none" fill="#67C7FA" d="M19.382,38.99c-8.004-0.467-14.387-6.863-14.838-14.863c0-7.84,11.486-21.191,14.838-25.677
	c3.35,4.486,13.514,17.81,13.514,25.646C32.896,31.933,26.622,38.99,19.382,38.99z"/>
<path display="none" fill="#67C7FA" d="M15.567,3.362c-0.306-0.306-0.802-0.306-1.107,0L0.598,17.223
	c-0.302,0.314-0.293,0.812,0.019,1.114c0.144,0.137,0.334,0.219,0.537,0.221h4.409v14.965c0,0.435,0.351,0.785,0.785,0.785l0,0
	h11.025c0.433,0.002,0.787-0.345,0.789-0.777l0,0l0,0V16.427c0-0.209,0.084-0.41,0.232-0.558l4.493-5.187L15.567,3.362z
	 M15.013,28.008h-3.15v-3.15h3.15V28.008z M15.013,21.708h-3.15v-3.15h3.15V21.708z M36.276,9.109H34.7
	c-0.437,0-0.787,0.353-0.787,0.787v5.513l-4.172-5.746c-0.308-0.306-0.8-0.306-1.107,0l-7.143,8.681
	c-0.117,0.142-0.179,0.313-0.179,0.492v14.68c-0.006,0.435,0.343,0.787,0.775,0.793l0,0h4.726c0.44,0,0.8-0.354,0.8-0.793l0,0l0,0
	v-5.507h3.149v5.502c0,0.441,0.357,0.798,0.798,0.798l0,0h4.726c0.431-0.006,0.776-0.354,0.776-0.785V9.896
	C37.063,9.461,36.712,9.109,36.276,9.109z M27.614,24.858h-3.15v-3.149h3.15V24.858z M33.913,24.858h-3.15v-3.149h3.15V24.858z"/>
<path display="none" fill="#67C7FA" d="M25.085,28.882c-0.74-1.475-0.74-5.656,0-6.887c0.982-1.477,8.363,3.443,8.363,3.443
	c2.213,0.983,2.213-15.006,0-14.022c0,0-7.627,5.167-8.363,3.443c-0.74-1.722-0.74-5.165,0-6.887
	C25.822,6.496,35.169,6.25,35.169,6.25c0-1.722-7.135-3.443-10.084-3.443c-2.953,0-6.15,0.247-10.086,1.968
	C11.062,6.25,7.864,8.71,4.912,11.663C1.96,14.615-1.73,20.519-1.73,22.241c0,1.721,3.69,6.887,9.102,9.101
	c5.412,2.215,8.118,2.706,11.071,3.2c2.705,0.244,6.396,0,9.592-0.74c2.461-0.49,7.135-1.721,7.135-2.705
	C35.169,30.605,25.822,30.359,25.085,28.882z M9.34,23.226c-1.968,0-3.69-1.725-3.69-3.69c0-1.969,1.722-3.691,3.69-3.691
	s3.69,1.722,3.69,3.691C13.03,21.501,11.308,23.226,9.34,23.226z"/>
<path display="none" fill="#52CE8D" d="M18.719,1.32c-0.84,0-1.119,0.561-1.68,1.121L0.799,29.042
	C0.52,29.32,0.52,29.88,0.52,30.159c0,1.4,1.119,1.961,1.961,1.961h32.479c1.121,0,1.961-0.561,1.961-1.961
	c0-0.561,0-0.561-0.279-1.117L20.68,2.441C20.119,1.88,19.559,1.32,18.719,1.32z M18.719,5.521l9.24,15.4h-2.24L21.52,16.72
	l-2.801,4.201L15.92,16.72l-4.201,4.201h-2.52L18.719,5.521z"/>
<rect x="-9.36" y="-9.36" display="none" fill="none" width="57" height="57"/>
<path fill="#52CE8D" d="M10.89,7.441c-1.822,0-3.3-1.479-3.3-3.301c0-1.821,1.478-3.3,3.3-3.3c1.821,0,3.3,1.479,3.3,3.3
	C14.19,5.962,12.711,7.441,10.89,7.441z M35.64,26.24h-8.25l-3.3-9.9l-3.301-5.774L24.09,9.74l7.59,3.3l0,0
	c0.911,0.363,1.946-0.079,2.31-0.99s-0.077-1.946-0.99-2.31l0,0l-8.909-3.3H17.49l-6.6,3.3l-3.3,3.3H2.64
	c-0.911,0-1.65,0.737-1.65,1.65s0.739,1.649,1.65,1.649h8.25l3.3-3.3l3.3,6.6l-6.6,6.601v11.55c0,0.913,0.739,1.65,1.649,1.65
	c0.911,0,1.65-0.737,1.65-1.65V27.53l6.6-4.589l3.301,6.6h11.55c0.908,0,1.649-0.737,1.649-1.65S36.548,26.24,35.64,26.24z"/>
<rect x="-5.861" y="-5.861" display="none" fill="none" width="49.162" height="49.162"/>
<path display="none" fill="#67C7FA" d="M4.491,34.89c0,0.354,0.289,0.646,0.646,0.646h9.701v-7.763h7.763v7.763h9.7
	c0.357,0,0.647-0.292,0.647-0.646V20.012H4.491V34.89z M35.36,16.337l-2.41-2.12V4.491c0-1.429-1.159-2.588-2.588-2.588
	c-1.431,0-2.588,1.159-2.588,2.588v5.175L19.19,2.135c-0.245-0.258-0.651-0.271-0.912-0.027l-0.029,0.027L2.079,16.27
	c-0.245,0.265-0.231,0.674,0.028,0.916c0.119,0.11,0.272,0.171,0.434,0.173l4.537,0.067h27.805c0.359,0.003,0.649-0.289,0.653-0.645
	C35.536,16.615,35.472,16.458,35.36,16.337L35.36,16.337z"/>
</svg>
